<?xml version="1.0" encoding="UTF-8"?>
<svg viewBox="0 0 188 178" version="1.1" xmlns="http://www.w3.org/2000/svg" xmlns:xlink="http://www.w3.org/1999/xlink">
	<g id="页面-1" stroke="none" stroke-width="1" fill="none" fill-rule="evenodd">
		<g id="key" transform="translate(0.000000, 0.257812)" fill="currentColor" fill-rule="nonzero">
			<path d="M92.8571428,42.8850447 C92.8571428,36.9326637 90.7738094,31.8731399 86.6071428,27.7064732 C82.4404761,23.5398066 77.3809523,21.4564732 71.4285715,21.4564732 C65.4761906,21.4564732 60.4166668,23.5398066 56.25,27.7064732 C52.0833332,31.8731399 49.9999999,36.9326637 50,42.8850447 C50,46.0100447 50.7068452,49.0978423 52.1205357,52.1484375 C49.0699406,50.734747 45.9821429,50.0279018 42.8571428,50.0279018 C36.9047618,50.0279018 31.845238,52.1112351 27.6785715,56.2779018 C23.5119049,60.4445684 21.4285715,65.5040923 21.4285715,71.4564732 C21.4285715,77.4088542 23.5119047,82.4683781 27.6785715,86.6350447 C31.8452383,90.8017114 36.904762,92.8850447 42.8571428,92.8850447 C48.8095235,92.8850447 53.8690473,90.8017114 58.0357143,86.6350447 C62.2023812,82.4683781 64.2857145,77.4088542 64.2857143,71.4564732 C64.2857143,68.3314732 63.578869,65.2436756 62.1651785,62.1930803 C65.2157737,63.6067708 68.3035714,64.313616 71.4285715,64.313616 C77.3809525,64.313616 82.4404762,62.2302827 86.6071428,58.063616 C90.7738093,53.8969493 92.8571428,48.8374256 92.8571428,42.8850447 L92.8571428,42.8850447 Z M187.834821,121.456473 C187.834821,122.721354 186.011905,125.176711 182.366071,128.822545 C178.720238,132.468378 176.264881,134.291295 175,134.291295 C174.330357,134.291295 173.270089,133.696057 171.819196,132.50558 C170.368304,131.315104 169.010417,130.087425 167.745536,128.822545 C166.480655,127.557664 165.048363,126.069569 163.448661,124.358259 C161.848958,122.646949 160.9375,121.679687 160.714286,121.456473 L150,132.170759 L174.553571,156.72433 C176.636905,158.807664 177.678571,161.337426 177.678571,164.313616 C177.678571,167.438616 176.227679,170.452009 173.325893,173.353795 C170.424107,176.255581 167.410714,177.706473 164.285714,177.706473 C161.309524,177.706473 158.779762,176.664807 156.696429,174.581473 L81.8080357,99.6930803 C68.7127976,109.440104 55.1339285,114.313616 41.0714285,114.313616 C28.9434523,114.313616 19.0662202,110.500372 11.4397322,102.873884 C3.81324421,95.247396 0,85.3701638 0,73.2421875 C0,61.3374257 3.53422617,49.6930804 10.6026785,38.3091518 C17.6711309,26.9252231 26.8973214,17.6990326 38.28125,10.6305803 C49.6651786,3.56212793 61.3095239,0.0279017578 73.2142857,0.0279017578 C85.3422619,0.0279017578 95.2194941,3.84114583 102.845982,11.467634 C110.47247,19.0941221 114.285714,28.9713542 114.285714,41.0993303 C114.285714,55.1618303 109.412202,68.7406993 99.6651785,81.8359375 L139.285714,121.456473 L150,110.742187 C149.776786,110.518973 148.809524,109.607515 147.098214,108.007812 C145.386905,106.40811 143.89881,104.975818 142.633929,103.710937 C141.369048,102.446057 140.141369,101.08817 138.950893,99.6372768 C137.760417,98.1863839 137.165179,97.1261161 137.165179,96.4564732 C137.165179,95.1915923 138.988095,92.7362351 142.633929,89.0904018 C146.279762,85.4445684 148.735119,83.6216518 150,83.6216518 C150.967262,83.6216518 151.822917,83.9936756 152.566964,84.7377232 C153.013393,85.1841518 154.724702,86.8396577 157.700893,89.704241 C160.677083,92.5688243 163.727679,95.5264137 166.852679,98.577009 C169.977679,101.627604 173.195685,104.827009 176.506696,108.175223 C179.817708,111.523437 182.533482,114.425223 184.654018,116.88058 C186.774553,119.335937 187.834821,120.861235 187.834821,121.456473 L187.834821,121.456473 Z" id="形状">
			</path>
		</g>
	</g>
</svg>
