<svg xmlns="http://www.w3.org/2000/svg" 
    xmlns:xlink="http://www.w3.org/1999/xlink" viewBox="0 0 16 16" version="1.1" p-id="1463">
    <path d="M8,1 C11.8659932,1 15,4.13400675 15,8 C15,11.8659932 11.8659932,15 8,15 C4.13400675,15 1,11.8659932 1,8 C1,4.13400675 4.13400675,1 8,1 Z M8,2.2 C4.79674845,2.2 2.2,4.79674845 2.2,8 C2.2,11.2032515 4.79674845,13.8 8,13.8 C11.2032515,13.8 13.8,11.2032515 13.8,8 C13.8,4.79674845 11.2032515,2.2 8,2.2 Z M7.9933713,4.894825 C8.15247202,4.8948233 8.28947198,4.95227544 8.40437627,5.06717973 C8.51928225,5.18208571 8.58115353,5.32350481 8.5899918,5.49144549 L8.5899918,5.49144549 L8.57673439,7.3873764 L10.5389557,7.38737301 C10.7068947,7.39621297 10.8483138,7.45808425 10.9632198,7.57299023 C11.0781258,7.68789622 11.139997,7.82931531 11.148837,7.9972543 C11.139997,8.16519329 11.0781258,8.30661239 10.9632198,8.42151837 C10.8483138,8.53642435 10.7068947,8.59829563 10.5389557,8.6071356 L10.5389557,8.6071356 L8.5899918,8.5938748 L8.5899918,10.5030631 C8.58999349,10.6621638 8.53033178,10.8013734 8.41100667,10.9206985 C8.29168155,11.0400236 8.15247202,11.0996853 7.9933713,11.0996836 C7.82543231,11.090847 7.68401321,11.0289758 7.56910723,10.9140698 C7.45420238,10.7991649 7.3967491,10.6621638 7.3967508,10.5030631 L7.3967508,10.5030631 L7.3967508,8.5938748 L5.46104599,8.5938765 C5.30194526,8.5938748 5.16273404,8.53421479 5.04340892,8.41488967 C4.9240838,8.29556455 4.86442379,8.15635333 4.86442379,7.9972543 C4.85558383,7.82931531 4.9108264,7.68568665 5.03015152,7.56636153 C5.14947664,7.44703641 5.29752443,7.3873747 5.47430339,7.3873747 L5.47430339,7.3873747 L7.3834917,7.3873747 L7.3967508,5.49144549 C7.38791083,5.3235065 7.44315171,5.17987614 7.56247683,5.06055103 C7.68180195,4.94122591 7.82543231,4.88598503 7.9933713,4.894825 Z" id="path-1"></path>
</svg>