<svg t="1607071381015" class="icon" viewBox="0 0 1024 1024" version="1.1" xmlns="http://www.w3.org/2000/svg" p-id="2963" width="200" height="200">
	<path d="M952.087273 145.92C938.472727 91.461818 863.162182 0 512 0 346.647273 0 226.513455 18.152727 154.949818 53.992727 75.962182 93.323636 69.818182 147.316364 69.818182 162.909091v309.527273a536.040727 536.040727 0 0 0 272.849454 466.618181l135.098182 75.869091a69.096727 69.096727 0 0 0 68.468364 0l135.098182-75.869091A536.040727 536.040727 0 0 0 954.181818 472.436364V162.909091a69.329455 69.329455 0 0 0-2.094545-16.989091zM884.363636 472.436364a465.198545 465.198545 0 0 1-237.265454 405.643636L512 954.181818l-135.098182-76.101818A465.198545 465.198545 0 0 1 139.636364 472.436364V162.909091s0-93.090909 372.363636-93.090909c349.090909 0 372.363636 93.090909 372.363636 93.090909v309.527273z m-164.328727-148.014546L488.727273 555.752727l-138.216728-138.24a34.909091 34.909091 0 1 0-49.384727 49.338182l162.909091 162.909091a34.909091 34.909091 0 0 0 49.361455 0l256-256a34.909091 34.909091 0 0 0-49.361455-49.338182z" p-id="2964">
	</path>
</svg>
