<?xml version="1.0" encoding="UTF-8"?>
<svg viewBox="0 0 170 153" version="1.1" xmlns="http://www.w3.org/2000/svg" xmlns:xlink="http://www.w3.org/1999/xlink">
	<g stroke="none" stroke-width="1" fill="none" fill-rule="evenodd">
		<g id="share" transform="translate(0.039062, 0.046875)" fill="currentColor" fill-rule="nonzero">
			<path d="M155.924424,84.8305842 C152.529526,84.8305842 149.776592,87.5813191 149.756006,90.9776164 L149.756006,91.0079959 C149.756006,91.0079959 149.756006,91.0079959 149.756006,91.0171896 L149.756006,134.151545 C149.756006,137.646975 146.935519,140.47166 143.454279,140.47166 L18.7288428,140.471659 C15.249202,140.471659 12.4317123,137.647974 12.4317123,134.151544 L12.4317123,26.6896037 C12.4317123,23.1945734 15.2520002,20.364692 18.7288428,20.364692 L77.1220521,20.364692 C80.529342,20.3578967 83.2812762,17.5955695 83.2812762,14.1824836 C83.2812762,10.7677988 80.5265439,8.0004748 77.1220521,8.0004748 L17.8988057,8.0004748 C8.06267461,8.0004748 0.0904796875,15.9936555 0.0904796875,25.8499729 L0.0904796875,134.981582 C0.0904796875,144.839298 8.06327422,152.836076 17.8988057,152.836076 L144.284116,152.836076 C154.119648,152.836076 162.092842,144.839298 162.092842,134.981582 L162.092842,90.9852113 C162.079051,87.582918 159.320322,84.8305842 155.924424,84.8305842 Z" id="路径">
			</path>
			<path d="M167.971456,42.5438545 L127.634805,2.08348672 L126.071265,0.795759766 C125.181268,0.330675 124.082013,0.152595898 123.044317,0.152595898 C119.513911,0.152595898 116.651252,3.02324961 116.651252,6.55945195 C116.651252,7.6011457 117.25784,9.22444512 117.725124,10.11684 L145.381772,38.040108 L116.944653,38.040108 C73.6781871,43.4164629 57.8531166,66.1996158 53.8656119,119.107744 C53.8600238,122.791646 56.7236824,125.666098 60.2530895,125.666098 C63.0641836,125.666098 65.6130555,123.190776 66.4664768,120.657294 C70.4555721,73.1015363 81.6671707,54.8017436 117.167302,50.8508223 L145.383571,50.8612152 L118.578145,77.7439889 L117.42073,79.2101947 C116.97843,80.0842021 116.807346,81.1840564 116.807346,82.1925727 C116.807346,85.7241783 119.670005,88.5994287 123.195814,88.5994287 C124.090608,88.5994287 125.673534,88.1009666 126.466597,87.7452078 L167.971057,46.3592674 L169.748651,44.5750771 L167.971456,42.5438545 Z" id="路径">
			</path>
		</g>
	</g>
</svg>
