<svg xmlns="http://www.w3.org/2000/svg" 
    xmlns:xlink="http://www.w3.org/1999/xlink" viewBox="0 0 16 16" version="1.1" p-id="1463">
    <path d="M8,1 C11.8659932,1 15,4.13400675 15,8 C15,11.8659932 11.8659932,15 8,15 C4.13400675,15 1,11.8659932 1,8 C1,4.13400675 4.13400675,1 8,1 Z M8,2.2 C4.79674845,2.2 2.2,4.79674845 2.2,8 C2.2,11.2032515 4.79674845,13.8 8,13.8 C11.2032515,13.8 13.8,11.2032515 13.8,8 C13.8,4.79674845 11.2032515,2.2 8,2.2 Z M10.6,7.2 C10.9313708,7.2 11.2,7.46862915 11.2,7.8 C11.2,8.13137085 10.9313708,8.4 10.6,8.4 L5.4,8.4 C5.06862915,8.4 4.8,8.13137085 4.8,7.8 C4.8,7.46862915 5.06862915,7.2 5.4,7.2 L10.6,7.2 Z" id="path-1"></path>
</svg>