<?xml version="1.0" encoding="UTF-8"?>
<svg viewBox="0 0 67 73" version="1.1" xmlns="http://www.w3.org/2000/svg" xmlns:xlink="http://www.w3.org/1999/xlink">
	<g id="页面-1" stroke="none" stroke-width="1" fill="none" fill-rule="evenodd">
		<g id="Baidu" transform="translate(-80.000000, -4.000000)" fill-rule="nonzero">
			<rect id="rect2223" fill-opacity="0" fill="#FFFFFF" x="0.78" y="0.761" width="229.339" height="77.776">
			</rect>
			<g id="g2225" transform="translate(3.559680, 4.541110)">
				<path d="M87.241,37.789 C94.991,36.124 93.933,26.852 93.706,24.826 C93.324,21.701 89.651,16.244 84.667,16.68 C78.392,17.239 77.476,26.303 77.476,26.303 C76.626,30.5 79.504,39.458 87.241,37.789 M101.633,22.246 C105.911,22.246 109.369,17.316 109.369,11.226 C109.369,5.135 105.911,0.213 101.633,0.213 C97.353,0.213 93.886,5.135 93.886,11.226 C93.886,17.316 97.352,22.246 101.633,22.246 M120.077,22.971 C125.804,23.721 129.473,17.612 130.207,12.983 C130.957,8.36 127.257,2.983 123.212,2.06 C119.149,1.126 114.077,7.63 113.62,11.873 C113.063,17.063 114.356,22.238 120.077,22.971 M142.756,30.748 C142.756,28.534 140.923,21.86 134.097,21.86 C127.257,21.86 126.353,28.158 126.353,32.608 C126.353,36.855 126.707,42.779 135.201,42.595 C143.686,42.407 142.756,32.977 142.756,30.748 M134.097,50.184 C134.097,50.184 125.244,43.336 120.077,35.932 C113.061,25.015 103.107,29.461 99.779,35.005 C96.461,40.563 91.303,44.073 90.565,45.005 C89.82,45.918 79.873,51.293 82.08,61.108 C84.292,70.915 92.049,70.729 92.049,70.729 C92.049,70.729 97.766,71.288 104.396,69.805 C111.04,68.326 116.756,70.168 116.756,70.168 C116.756,70.168 132.254,75.365 136.489,65.365 C140.729,55.373 134.097,50.184 134.097,50.184" id="path2227" fill="#2319DC">
				</path>
				<path d="M103.008,40.637 L103.008,47.225 L97.64,47.225 C97.64,47.225 92.275,47.67 90.397,53.751 C89.742,57.811 90.975,60.202 91.19,60.713 C91.407,61.223 93.141,64.193 97.495,65.065 L107.568,65.065 L107.568,40.709 L103.008,40.637 Z M102.927,61.067 L98.869,61.067 C98.869,61.067 96.042,60.92 95.181,57.665 C94.737,56.223 95.247,54.557 95.471,53.902 C95.676,53.246 96.625,51.73 98.582,51.146 L102.926,51.146 L102.927,61.067 L102.927,61.067 Z" id="path2229" fill="#FFFFFF">
				</path>
				<path d="M110.037,47.816 L110.037,60.64 C110.037,60.64 110.247,63.831 114.747,64.994 L126.339,64.994 L126.339,47.814 L121.336,47.814 L121.336,60.711 L116.562,60.711 C116.562,60.711 115.036,60.489 114.749,59.263 L114.749,47.74 L110.037,47.816 Z" id="path2231" fill="#FFFFFF">
				</path>
			</g>
		</g>
	</g>
</svg>
