<?xml version="1.0" encoding="UTF-8"?>
<svg viewBox="0 0 590 590" version="1.1" xmlns="http://www.w3.org/2000/svg" xmlns:xlink="http://www.w3.org/1999/xlink">
	<g stroke="none" stroke-width="1" fill="none" fill-rule="evenodd">
		<g fill-rule="nonzero">
			<rect fill="#06C160" x="0" y="0" width="590" height="590" rx="104">
			</rect>
			<g transform="translate(127.000000, 159.000000)" fill="#FFFFFF">
				<path d="M240.489202,85.4155522 C237.300416,85.1728806 234.070779,85.0488907 230.806619,85.0488907 C172.371237,85.0488907 125,124.78592 125,173.80403 C125,183.912009 127.014329,193.625337 130.724628,202.67696 C127.516696,202.890956 124.273529,203 121,203 C105.109229,203 94.9015748,200.147332 81,195.476497 C77.4345683,194.440025 65.6464559,200.392116 45.6356627,213.332769 C44.1611712,214.065139 42.6748998,213.930026 41.1768484,212.927432 C39.6787971,211.924838 39.2798584,210.395832 39.9800323,208.340415 C45.3636651,190.797986 46.8940027,181.061245 44.5710452,179.130192 C16.157209,160.556795 0,134.05785 0,101.5 C0,45.4430979 54.1735453,0 121,0 C181.301419,0 231.300195,37.0020806 240.489202,85.4155522 Z M81,86 C90.3888407,86 98,78.3888407 98,69 C98,59.6111593 90.3888407,52 81,52 C71.6111593,52 64,59.6111593 64,69 C64,78.3888407 71.6111593,86 81,86 Z M162,86 C171.388841,86 179,78.3888407 179,69 C179,59.6111593 171.388841,52 162,52 C152.611159,52 145,59.6111593 145,69 C145,78.3888407 152.611159,86 162,86 Z" id="Combined-Shape">
				</path>
				<path d="M235.30662,262.960691 C222.002155,262.960691 213.455849,260.57231 201.816828,256.661677 C198.831689,255.793897 188.962154,260.777254 172.208222,271.611748 C170.973711,272.22492 169.729338,272.111798 168.475103,271.272381 C167.220867,270.432965 166.886857,269.152813 167.473074,267.431926 C171.980493,252.744618 173.26176,244.592583 171.316876,242.975819 C147.52754,227.425339 134.000001,205.239236 134.000001,177.980345 C134.000001,131.046997 179.356519,93 235.30662,93 C291.25672,93 336.613238,131.046997 336.613238,177.980345 C336.613238,224.913694 291.25672,262.960691 235.30662,262.960691 Z M201.816828,165.003051 C209.677586,165.003051 216.04999,158.630648 216.04999,150.76989 C216.04999,142.909132 209.677586,136.536729 201.816828,136.536729 C193.95607,136.536729 187.583667,142.909132 187.583667,150.76989 C187.583667,158.630648 193.95607,165.003051 201.816828,165.003051 Z M269.633656,165.003051 C277.494414,165.003051 283.866817,158.630648 283.866817,150.76989 C283.866817,142.909132 277.494414,136.536729 269.633656,136.536729 C261.772898,136.536729 255.400494,142.909132 255.400494,150.76989 C255.400494,158.630648 261.772898,165.003051 269.633656,165.003051 Z" id="Combined-Shape-Copy-4" transform="translate(235.306620, 182.500000) scale(-1, 1) translate(-235.306620, -182.500000) ">
				</path>
			</g>
		</g>
	</g>
</svg>
